HIERARCHY
ROOT Hips
{
	OFFSET 0.000000 0.000000 0.000000
	CHANNELS 6 Xposition Yposition Zposition Xrotation Yrotation Zrotation
	JOINT LeftUpLeg_virtual
	{
		OFFSET 0.000000 0.000000 0.000000
		CHANNELS 3 Xrotation Yrotation Zrotation
		JOINT LeftUpLeg
		{
			OFFSET 15.427100 -6.655098 0.678600
			CHANNELS 3 Xrotation Yrotation Zrotation
			JOINT LeftLeg
			{
				OFFSET 4.081073 -39.591068 13.024000
				CHANNELS 3 Xrotation Yrotation Zrotation
				JOINT LeftFoot
				{
					OFFSET -4.081074 -37.707932 -15.979700
					CHANNELS 3 Xrotation Yrotation Zrotation
					JOINT LeftToeBase
					{
						OFFSET 5.346399 -15.068900 20.645000
						CHANNELS 3 Xrotation Yrotation Zrotation
						JOINT LeftToe_End
						{
							OFFSET 2.754700 0.931300 11.300900
							CHANNELS 3 Xrotation Yrotation Zrotation
							End Site
							{
								OFFSET 0 0 0
							}
						}
					}
				}
			}
		}
	}
	JOINT RightUpLeg_virtual
	{
		OFFSET 0.000000 0.000000 0.000000
		CHANNELS 3 Xrotation Yrotation Zrotation
		JOINT RightUpLeg
		{
			OFFSET -15.569500 -6.655098 0.678600
			CHANNELS 3 Xrotation Yrotation Zrotation
			JOINT RightLeg
			{
				OFFSET -4.081825 -39.591045 13.023800
				CHANNELS 3 Xrotation Yrotation Zrotation
				JOINT RightFoot
				{
					OFFSET 4.081824 -37.707954 -15.979600
					CHANNELS 3 Xrotation Yrotation Zrotation
					JOINT RightToeBase
					{
						OFFSET -5.346400 -15.068900 20.645000
						CHANNELS 3 Xrotation Yrotation Zrotation
						JOINT RightToe_End
						{
							OFFSET -2.754700 0.931300 11.300900
							CHANNELS 3 Xrotation Yrotation Zrotation
							End Site
							{
								OFFSET 0 0 0
							}
						}
					}
				}
			}
		}
	}
	JOINT Spine_virtual
	{
		OFFSET 0.000000 0.000000 0.000000
		CHANNELS 3 Xrotation Yrotation Zrotation
		JOINT Spine
		{
			OFFSET -0.279200 12.230698 -2.892100
			CHANNELS 3 Xrotation Yrotation Zrotation
			JOINT Spine1
			{
				OFFSET -0.232667 10.192268 -1.242267
				CHANNELS 3 Xrotation Yrotation Zrotation
				JOINT Spine1_split
				{
					OFFSET -0.232667 10.192268 -1.242267
					CHANNELS 3 Xrotation Yrotation Zrotation
					JOINT Spine2
					{
						OFFSET -0.232667 10.192268 -1.242267
						CHANNELS 3 Xrotation Yrotation Zrotation
						JOINT Neck_virtual
						{
							OFFSET 0.000000 0.000000 0.000000
							CHANNELS 3 Xrotation Yrotation Zrotation
							JOINT Neck
							{
								OFFSET -0.418800 17.814194 8.416900
								CHANNELS 3 Xrotation Yrotation Zrotation
								JOINT Head
								{
									OFFSET 0.000000 7.031097 3.806800
									CHANNELS 3 Xrotation Yrotation Zrotation
									JOINT HeadTop_End
									{
										OFFSET 0.000000 24.646606 12.978600
										CHANNELS 3 Xrotation Yrotation Zrotation
										End Site
										{
											OFFSET 0 0 0
										}
									}
								}
							}
						}
						JOINT LeftShoulder_virtual
						{
							OFFSET 0.000000 0.000000 0.000000
							CHANNELS 3 Xrotation Yrotation Zrotation
							JOINT LeftShoulder
							{
								OFFSET 8.476499 7.247704 -3.868750
								CHANNELS 3 Xrotation Yrotation Zrotation
								JOINT LeftShoulder_split
								{
									OFFSET 8.476499 7.247704 -3.868750
									CHANNELS 3 Xrotation Yrotation Zrotation
									JOINT LeftArm
									{
										OFFSET 9.308998 -2.777710 0.208600
										CHANNELS 3 Xrotation Yrotation Zrotation
										JOINT LeftForeArm
										{
											OFFSET 29.972298 0.000000 0.000000
											CHANNELS 3 Xrotation Yrotation Zrotation
											JOINT LeftHand
											{
												OFFSET 26.026505 0.000000 0.000000
												CHANNELS 3 Xrotation Yrotation Zrotation
												End Site
												{
													OFFSET 0 0 0
												}
											}
										}
									}
								}
							}
						}
						JOINT RightShoulder_virtual
						{
							OFFSET 0.000000 0.000000 0.000000
							CHANNELS 3 Xrotation Yrotation Zrotation
							JOINT RightShoulder
							{
								OFFSET -7.570500 7.247704 -3.868750
								CHANNELS 3 Xrotation Yrotation Zrotation
								JOINT RightShoulder_split
								{
									OFFSET -7.570500 7.247704 -3.868750
									CHANNELS 3 Xrotation Yrotation Zrotation
									JOINT RightArm
									{
										OFFSET -9.308998 -2.777710 0.208500
										CHANNELS 3 Xrotation Yrotation Zrotation
										JOINT RightForeArm
										{
											OFFSET -29.972300 0.000000 0.000000
											CHANNELS 3 Xrotation Yrotation Zrotation
											JOINT RightHand
											{
												OFFSET -26.026505 0.000000 0.000000
												CHANNELS 3 Xrotation Yrotation Zrotation
												End Site
												{
													OFFSET 0 0 0
												}
											}
										}
									}
								}
							}
						}
					}
				}
			}
		}
	}
}
MOTION
Frames: 9
Frame Time: 0.03333333
5.197779 140.413269 12.158669 0.000000 0.000000 0.000000 9.581219 -31.439764 4.196682 -76.293432 -6.955609 30.755720 68.222969 -12.570522 4.704262 21.134226 6.433755 -13.874984 -7.406084 2.859590 -3.023416 0.000000 0.000000 0.000000 9.286688 -31.462532 3.744361 -109.245522 -21.375388 -6.462995 93.486206 20.283340 2.572827 28.029811 16.293140 33.302349 11.005100 -44.541159 -57.030010 0.000000 0.000000 0.000000 11.615614 -25.432901 4.938225 23.622529 0.878652 -10.929179 15.224131 -3.947526 -0.737664 0.242982 0.095061 0.051635 0.000000 0.000000 0.000000 16.198705 -1.952332 -1.180170 2.121568 1.096521 -3.982683 -13.962916 46.701166 -20.886865 0.000000 0.000000 0.000000 16.865656 -3.534376 -2.421279 13.457477 -15.362591 -0.639937 2.517145 -4.175616 -1.584545 -71.247349 -19.483275 5.058677 43.669204 -0.228851 20.633877 0.000000 0.000000 0.000000 20.923673 -2.170945 -1.352837 4.743039 21.085532 -9.566000 8.242221 6.323979 1.985559 -49.248000 6.136727 5.805895 -57.279930 44.457237 31.630746 0.000000 0.000000 0.000000 
5.259730 140.323822 12.032184 0.000000 0.000000 0.000000 9.708288 -31.637914 4.253507 -76.413192 -7.053492 30.784100 68.316262 -12.627984 4.791216 21.219344 6.463858 -14.040332 -7.374484 2.811997 -3.042464 0.000000 0.000000 0.000000 9.379649 -31.616010 3.807236 -109.031082 -21.443638 -6.659085 93.275577 20.441148 2.487086 27.893685 16.450907 33.237835 10.902688 -44.626284 -57.347382 0.000000 0.000000 0.000000 11.657844 -25.600143 5.003475 23.362471 0.989508 -10.855009 15.237252 -3.918487 -0.718592 0.239380 0.121658 0.051571 0.000000 0.000000 0.000000 16.239813 -1.931195 -1.207475 2.331341 1.001859 -4.175254 -13.213985 45.931151 -21.476420 0.000000 0.000000 0.000000 16.857761 -3.520811 -2.461132 13.293909 -15.574964 -1.296452 2.638156 -4.234645 -1.664129 -70.168261 -19.061224 5.171724 43.773040 -0.447042 20.518383 0.000000 0.000000 0.000000 21.001372 -2.137311 -1.354205 4.505472 20.957302 -8.867085 8.277791 6.276347 2.092686 -48.033042 6.408879 5.868168 -56.675059 44.395236 30.874490 0.000000 0.000000 0.000000 
5.309157 140.240082 11.893232 0.000000 0.000000 0.000000 9.847889 -31.798014 4.354837 -76.457868 -7.089017 30.786333 68.291482 -12.661627 4.817139 21.222885 6.559479 -14.127235 -7.386394 2.758216 -3.044099 0.000000 0.000000 0.000000 9.497351 -31.725143 3.909661 -108.755299 -21.494645 -6.865290 93.014787 20.582613 2.369033 27.718322 16.567548 33.229581 10.690355 -44.692199 -57.679008 0.000000 0.000000 0.000000 11.705617 -25.728597 5.087200 23.104332 1.068913 -10.804998 15.200709 -3.894805 -0.695427 0.237824 0.141957 0.050270 0.000000 0.000000 0.000000 16.242644 -1.908826 -1.237798 2.507231 0.875061 -4.369755 -12.502292 45.086567 -21.980553 0.000000 0.000000 0.000000 16.824120 -3.504273 -2.477240 13.213578 -15.676659 -1.798224 2.695144 -4.266353 -1.853626 -69.006057 -18.581637 5.434134 43.902093 -0.693490 20.475445 0.000000 0.000000 0.000000 21.028686 -2.110420 -1.363215 4.308503 20.758757 -8.238601 8.277587 6.260776 2.337333 -46.781120 6.400900 5.663119 -56.238149 44.299036 30.332460 0.000000 0.000000 0.000000 
5.345588 140.166763 11.744141 0.000000 0.000000 0.000000 10.007334 -31.912584 4.514152 -76.429660 -7.050122 30.768308 68.135187 -12.685105 4.761591 21.142087 6.702658 -14.137493 -7.423245 2.700117 -3.015706 0.000000 0.000000 0.000000 9.633499 -31.793366 4.060189 -108.437033 -21.521697 -7.081862 92.714969 20.694631 2.227729 27.503816 16.628420 33.268188 10.513697 -44.770261 -57.942018 0.000000 0.000000 0.000000 11.749480 -25.819469 5.204132 22.871587 1.117871 -10.782788 15.116486 -3.871370 -0.671636 0.244897 0.158382 0.055955 0.000000 0.000000 0.000000 16.201642 -1.877369 -1.276155 2.618287 0.723020 -4.539310 -11.780888 44.236895 -22.460116 0.000000 0.000000 0.000000 16.758902 -3.476576 -2.473922 13.204625 -15.706519 -2.203117 2.642906 -4.248401 -2.148934 -67.800433 -17.962561 5.759915 44.113706 -0.976842 20.556107 0.000000 0.000000 0.000000 20.994803 -2.082758 -1.383306 4.145692 20.518170 -7.635887 8.337079 6.365171 2.635595 -45.592776 6.183542 5.326560 -55.945663 44.181181 29.979958 0.000000 0.000000 0.000000 
5.355156 140.107925 11.600505 0.000000 0.000000 0.000000 10.171433 -31.983413 4.724566 -76.349494 -6.946381 30.743911 67.863312 -12.723211 4.620816 20.987848 6.855698 -14.113911 -7.440246 2.644061 -2.958282 0.000000 0.000000 0.000000 9.779662 -31.839026 4.259547 -108.104157 -21.518798 -7.307932 92.424706 20.769721 2.078374 27.271711 16.621173 33.326327 10.499237 -44.882010 -58.062195 0.000000 0.000000 0.000000 11.788051 -25.880459 5.352189 22.683743 1.145188 -10.782616 14.982498 -3.840842 -0.646204 0.254333 0.172628 0.061721 0.000000 0.000000 0.000000 16.109310 -1.831331 -1.318120 2.651370 0.560217 -4.673753 -11.011915 43.434010 -22.986206 0.000000 0.000000 0.000000 16.652039 -3.432326 -2.451570 13.234955 -15.695826 -2.592286 2.534579 -4.149209 -2.419926 -66.621979 -17.126447 6.109144 44.471194 -1.335288 20.779602 0.000000 0.000000 0.000000 20.893906 -2.046974 -1.413283 3.994646 20.263387 -7.021056 8.457302 6.558474 2.909174 -44.466540 5.833711 4.915282 -55.804220 44.102887 29.811129 0.000000 0.000000 0.000000 
5.343430 140.065521 11.459859 0.000000 0.000000 0.000000 10.330061 -32.031186 4.963585 -76.249732 -6.790314 30.720149 67.523551 -12.788577 4.413687 20.794844 6.982970 -14.091232 -7.405879 2.595811 -2.878734 0.000000 0.000000 0.000000 9.927035 -31.867033 4.487765 -107.789490 -21.482837 -7.544306 92.170227 20.823020 1.937495 27.048990 16.574060 33.401862 10.654772 -45.030372 -58.067550 0.000000 0.000000 0.000000 11.826485 -25.933422 5.522460 22.550213 1.161361 -10.785314 14.805115 -3.802289 -0.610701 0.264970 0.177237 0.070790 0.000000 0.000000 0.000000 15.962521 -1.771853 -1.353005 2.604516 0.398654 -4.776092 -10.187696 42.726098 -23.594275 0.000000 0.000000 0.000000 16.492839 -3.367816 -2.408159 13.276041 -15.641427 -3.035689 2.361607 -4.004871 -2.609049 -65.545118 -16.035665 6.467548 44.981150 -1.756159 21.138539 0.000000 0.000000 0.000000 20.730982 -2.002591 -1.443218 3.840996 20.008747 -6.347328 8.636980 6.743720 3.056439 -43.428481 5.354249 4.447710 -55.827897 44.127018 29.823372 0.000000 0.000000 0.000000 
5.313159 140.046783 11.338059 0.000000 0.000000 0.000000 10.481297 -32.062919 5.201354 -76.143195 -6.601316 30.696482 67.161967 -12.875768 4.167470 20.579642 7.076523 -14.100295 -7.305990 2.563037 -2.796809 0.000000 0.000000 0.000000 10.073638 -31.900877 4.722205 -107.546615 -21.403412 -7.792305 91.968770 20.878082 1.819314 26.877821 16.532896 33.505954 10.926090 -45.194481 -58.008127 0.000000 0.000000 0.000000 11.872560 -25.985571 5.699158 22.466377 1.169818 -10.764697 14.581752 -3.760007 -0.559230 0.270740 0.178881 0.069316 0.000000 0.000000 0.000000 15.762270 -1.706002 -1.369223 2.512911 0.253175 -4.863114 -9.328886 42.132613 -24.290639 0.000000 0.000000 0.000000 16.282102 -3.293612 -2.343792 13.307293 -15.493625 -3.554563 2.143736 -3.813341 -2.735348 -64.631594 -14.642071 6.842948 45.560237 -2.189106 21.571674 0.000000 0.000000 0.000000 20.505278 -1.951150 -1.451160 3.672141 19.743739 -5.639870 8.803719 6.846241 3.065903 -42.417302 4.709097 3.948396 -56.014959 44.306747 30.003464 0.000000 0.000000 0.000000 
5.267429 140.055740 11.235094 0.000000 0.000000 0.000000 10.612991 -32.094075 5.412124 -76.002486 -6.393868 30.668116 66.793567 -12.955332 3.918352 20.316126 7.157894 -14.127961 -7.146360 2.549202 -2.734203 0.000000 0.000000 0.000000 10.224842 -31.944221 4.943406 -107.380457 -21.281116 -8.029657 91.820671 20.948344 1.728659 26.777893 16.529415 33.631817 11.258716 -45.355062 -57.915319 0.000000 0.000000 0.000000 11.941337 -26.047169 5.869288 22.417125 1.170862 -10.702561 14.317987 -3.722223 -0.489516 0.268037 0.175545 0.056536 0.000000 0.000000 0.000000 15.507670 -1.646571 -1.353633 2.417974 0.136696 -4.957742 -8.505573 41.689900 -25.022601 0.000000 0.000000 0.000000 16.025743 -3.221899 -2.263536 13.318723 -15.190045 -4.135979 1.910957 -3.599218 -2.759273 -63.942346 -12.976212 7.226760 46.146797 -2.598063 22.029192 0.000000 0.000000 0.000000 20.238137 -1.900316 -1.426721 3.496263 19.468489 -4.930108 8.852315 6.899047 2.980077 -41.401929 3.805335 3.386544 -56.396780 44.665004 30.382707 0.000000 0.000000 0.000000 
5.218929 140.092743 11.150390 0.000000 0.000000 0.000000 10.740099 -32.131389 5.589702 -75.796576 -6.188381 30.614107 66.421431 -12.991918 3.708950 19.965264 7.255095 -14.133301 -6.967619 2.551991 -2.702530 0.000000 0.000000 0.000000 10.377908 -31.995239 5.132296 -107.272711 -21.129074 -8.237112 91.697694 21.036537 1.678579 26.750564 16.572240 33.759357 11.601977 -45.496747 -57.804205 0.000000 0.000000 0.000000 12.039241 -26.116084 6.030225 22.385252 1.156569 -10.596169 14.028447 -3.698475 -0.408817 0.261571 0.165448 0.046282 0.000000 0.000000 0.000000 15.224119 -1.605377 -1.303467 2.370041 0.049708 -5.073770 -7.755752 41.419466 -25.753339 0.000000 0.000000 0.000000 15.728626 -3.167776 -2.182876 13.317002 -14.673780 -4.717590 1.638703 -3.421148 -2.734994 -63.451474 -11.077880 7.643918 46.659362 -2.925271 22.467557 0.000000 0.000000 0.000000 19.940814 -1.860129 -1.364803 3.336526 19.175758 -4.283434 8.833884 7.005800 2.787115 -40.466624 2.541441 2.764778 -56.971895 45.160565 30.962682 0.000000 0.000000 0.000000 
